<svg data-v-fde0c5aa="" xmlns="http://www.w3.org/2000/svg" viewBox="0 0 300 300" class="font"><!----><defs data-v-fde0c5aa=""><!----></defs><rect data-v-fde0c5aa="" fill="transparent" x="0" y="0" width="300px" height="300px" class="logo-background-square"></rect><defs data-v-fde0c5aa=""><linearGradient data-v-fde0c5aa="" gradientTransform="rotate(25)" id="a2371d81-4b9e-4a48-afc2-934237621268" x1="0%" y1="0%" x2="100%" y2="0%"><stop data-v-fde0c5aa="" offset="0%" stop-color="#122663" stop-opacity="1"></stop><stop data-v-fde0c5aa="" offset="100%" stop-color="#5DD7AD" stop-opacity="1"></stop></linearGradient></defs><g data-v-fde0c5aa="" id="9d82bbb1-d6c1-4ca0-a218-b4c110210119" fill="url(#a2371d81-4b9e-4a48-afc2-934237621268)" transform="matrix(4.2105263157894735,0,0,4.2105263157894735,35.24210528323525,115.11579011615954)"><path d="M1.13 2.21L1.13 11.48L7.24 11.48L7.24 10.47L2.18 10.47L2.18 2.21ZM11.26 4.37C9.11 4.37 7.78 5.98 7.78 7.98C7.78 9.98 9.11 11.59 11.26 11.59C13.40 11.59 14.73 9.98 14.73 7.98C14.73 5.98 13.40 4.37 11.26 4.37ZM11.26 10.64C9.70 10.64 8.83 9.42 8.83 7.98C8.83 6.54 9.70 5.32 11.26 5.32C12.81 5.32 13.68 6.54 13.68 7.98C13.68 9.42 12.81 10.64 11.26 10.64ZM16.11 4.48L16.11 11.48L17.16 11.48L17.16 7.45C17.16 6.19 18.12 5.32 19.28 5.32C20.43 5.32 21.24 6.16 21.24 7.43L21.24 11.48L22.29 11.48L22.29 7.41C22.29 5.42 20.93 4.37 19.49 4.37C18.35 4.37 17.67 4.90 17.16 5.57L17.16 4.48ZM29.50 4.48L29.50 5.60C28.98 4.84 28.15 4.37 26.99 4.37C24.95 4.37 23.60 5.92 23.60 7.92C23.60 9.93 24.95 11.48 26.99 11.48C28.15 11.48 28.98 10.99 29.50 10.23L29.50 11.20C29.50 12.64 28.80 13.41 27.19 13.41C26.12 13.41 25.42 13.01 25.14 12.32L23.98 12.32C24.37 13.54 25.48 14.36 27.24 14.36C29.34 14.36 30.55 13.27 30.55 11.27L30.55 4.48ZM27.13 10.53C25.58 10.53 24.65 9.37 24.65 7.92C24.65 6.48 25.58 5.32 27.13 5.32C28.66 5.32 29.55 6.48 29.55 7.92C29.55 9.37 28.66 10.53 27.13 10.53ZM35.49 10.64C34.08 10.64 33.17 9.65 33.01 8.40L38.88 8.40L38.88 7.98C38.88 5.98 37.55 4.37 35.41 4.37C33.26 4.37 31.93 5.98 31.93 7.98C31.93 9.98 33.33 11.59 35.48 11.59C37.14 11.59 38.18 10.72 38.67 9.46L37.52 9.46C37.14 10.16 36.47 10.64 35.49 10.64ZM35.41 5.32C36.75 5.32 37.59 6.23 37.79 7.42L33.03 7.42C33.22 6.23 34.06 5.32 35.41 5.32ZM44.83 4.48L42.63 10.36L40.42 4.48L39.27 4.48L42.01 11.48L43.25 11.48L45.98 4.48ZM49.91 4.37C47.77 4.37 46.44 5.98 46.44 7.98C46.44 9.98 47.77 11.59 49.91 11.59C52.05 11.59 53.38 9.98 53.38 7.98C53.38 5.98 52.05 4.37 49.91 4.37ZM49.91 10.64C48.36 10.64 47.49 9.42 47.49 7.98C47.49 6.54 48.36 5.32 49.91 5.32C51.46 5.32 52.33 6.54 52.33 7.98C52.33 9.42 51.46 10.64 49.91 10.64Z"></path></g><!----><!----></svg>